<mxfile host="Electron" modified="2024-03-28T09:29:21.621Z" agent="Mozilla/5.0 (Windows NT 10.0; Win64; x64) AppleWebKit/537.36 (KHTML, like Gecko) draw.io/24.0.4 Chrome/120.0.6099.109 Electron/28.1.0 Safari/537.36" etag="kJ0RYNZb5tJQ_W7j_gZZ" version="24.0.4" type="device">
  <diagram name="Trang-1" id="Cs7yebMBvgUVHk8smaEE">
    <mxGraphModel dx="1036" dy="640" grid="1" gridSize="10" guides="1" tooltips="1" connect="1" arrows="1" fold="1" page="1" pageScale="1" pageWidth="3300" pageHeight="4681" math="0" shadow="0">
      <root>
        <mxCell id="0" />
        <mxCell id="1" parent="0" />
        <mxCell id="hlbD9dBjY0pBBWdLq2yh-1" value="" style="shape=cylinder3;whiteSpace=wrap;html=1;boundedLbl=1;backgroundOutline=1;size=15;" vertex="1" parent="1">
          <mxGeometry x="330" y="160" width="60" height="80" as="geometry" />
        </mxCell>
        <mxCell id="hlbD9dBjY0pBBWdLq2yh-3" value="" style="shape=cylinder3;whiteSpace=wrap;html=1;boundedLbl=1;backgroundOutline=1;size=15;" vertex="1" parent="1">
          <mxGeometry x="330" y="290" width="60" height="80" as="geometry" />
        </mxCell>
        <mxCell id="hlbD9dBjY0pBBWdLq2yh-4" value="T6" style="text;html=1;align=center;verticalAlign=middle;whiteSpace=wrap;rounded=0;" vertex="1" parent="1">
          <mxGeometry x="330" y="320" width="60" height="30" as="geometry" />
        </mxCell>
        <mxCell id="hlbD9dBjY0pBBWdLq2yh-5" value="T7" style="text;html=1;align=center;verticalAlign=middle;whiteSpace=wrap;rounded=0;" vertex="1" parent="1">
          <mxGeometry x="330" y="200" width="60" height="30" as="geometry" />
        </mxCell>
        <mxCell id="hlbD9dBjY0pBBWdLq2yh-6" value="" style="shape=flexArrow;endArrow=classic;html=1;rounded=0;" edge="1" parent="1">
          <mxGeometry width="50" height="50" relative="1" as="geometry">
            <mxPoint x="440" y="280" as="sourcePoint" />
            <mxPoint x="590" y="280" as="targetPoint" />
          </mxGeometry>
        </mxCell>
        <mxCell id="hlbD9dBjY0pBBWdLq2yh-8" value="" style="shape=cylinder3;whiteSpace=wrap;html=1;boundedLbl=1;backgroundOutline=1;size=15;" vertex="1" parent="1">
          <mxGeometry x="600" y="160" width="60" height="80" as="geometry" />
        </mxCell>
        <mxCell id="hlbD9dBjY0pBBWdLq2yh-9" value="" style="shape=cylinder3;whiteSpace=wrap;html=1;boundedLbl=1;backgroundOutline=1;size=15;" vertex="1" parent="1">
          <mxGeometry x="600" y="290" width="60" height="80" as="geometry" />
        </mxCell>
        <mxCell id="hlbD9dBjY0pBBWdLq2yh-10" value="T6" style="text;html=1;align=center;verticalAlign=middle;whiteSpace=wrap;rounded=0;" vertex="1" parent="1">
          <mxGeometry x="600" y="320" width="60" height="30" as="geometry" />
        </mxCell>
        <mxCell id="hlbD9dBjY0pBBWdLq2yh-11" value="T7" style="text;html=1;align=center;verticalAlign=middle;whiteSpace=wrap;rounded=0;" vertex="1" parent="1">
          <mxGeometry x="600" y="200" width="60" height="30" as="geometry" />
        </mxCell>
        <mxCell id="hlbD9dBjY0pBBWdLq2yh-12" value="ETL" style="text;html=1;align=center;verticalAlign=middle;resizable=0;points=[];autosize=1;strokeColor=none;fillColor=none;" vertex="1" parent="1">
          <mxGeometry x="480" y="240" width="50" height="30" as="geometry" />
        </mxCell>
        <mxCell id="hlbD9dBjY0pBBWdLq2yh-14" value="" style="strokeWidth=2;html=1;shape=mxgraph.flowchart.annotation_2;align=left;labelPosition=right;pointerEvents=1;rotation=-180;" vertex="1" parent="1">
          <mxGeometry x="670" y="220" width="50" height="100" as="geometry" />
        </mxCell>
        <mxCell id="hlbD9dBjY0pBBWdLq2yh-15" value="Join Data" style="shape=cylinder3;whiteSpace=wrap;html=1;boundedLbl=1;backgroundOutline=1;size=15;" vertex="1" parent="1">
          <mxGeometry x="750" y="230" width="60" height="80" as="geometry" />
        </mxCell>
        <mxCell id="hlbD9dBjY0pBBWdLq2yh-16" value="" style="shape=flexArrow;endArrow=classic;html=1;rounded=0;" edge="1" parent="1">
          <mxGeometry width="50" height="50" relative="1" as="geometry">
            <mxPoint x="820" y="280" as="sourcePoint" />
            <mxPoint x="970" y="280" as="targetPoint" />
          </mxGeometry>
        </mxCell>
        <mxCell id="hlbD9dBjY0pBBWdLq2yh-17" value="ETL" style="text;html=1;align=center;verticalAlign=middle;resizable=0;points=[];autosize=1;strokeColor=none;fillColor=none;" vertex="1" parent="1">
          <mxGeometry x="860" y="240" width="50" height="30" as="geometry" />
        </mxCell>
        <mxCell id="hlbD9dBjY0pBBWdLq2yh-18" value="Data Result" style="shape=cylinder3;whiteSpace=wrap;html=1;boundedLbl=1;backgroundOutline=1;size=15;" vertex="1" parent="1">
          <mxGeometry x="1000" y="230" width="60" height="80" as="geometry" />
        </mxCell>
        <mxCell id="hlbD9dBjY0pBBWdLq2yh-19" value="" style="image;aspect=fixed;perimeter=ellipsePerimeter;html=1;align=center;shadow=0;dashed=0;spacingTop=3;image=img/lib/active_directory/databases.svg;" vertex="1" parent="1">
          <mxGeometry x="1250" y="197.75" width="147.45" height="144.5" as="geometry" />
        </mxCell>
        <mxCell id="hlbD9dBjY0pBBWdLq2yh-20" value="" style="shape=flexArrow;endArrow=classic;html=1;rounded=0;" edge="1" parent="1">
          <mxGeometry width="50" height="50" relative="1" as="geometry">
            <mxPoint x="1080" y="280" as="sourcePoint" />
            <mxPoint x="1230" y="280" as="targetPoint" />
          </mxGeometry>
        </mxCell>
        <mxCell id="hlbD9dBjY0pBBWdLq2yh-21" value="Mysql" style="text;html=1;align=center;verticalAlign=middle;resizable=0;points=[];autosize=1;strokeColor=none;fillColor=none;" vertex="1" parent="1">
          <mxGeometry x="1298.72" y="160" width="50" height="30" as="geometry" />
        </mxCell>
        <mxCell id="hlbD9dBjY0pBBWdLq2yh-22" value="Storage" style="text;html=1;align=center;verticalAlign=middle;resizable=0;points=[];autosize=1;strokeColor=none;fillColor=none;" vertex="1" parent="1">
          <mxGeometry x="1110" y="240" width="70" height="30" as="geometry" />
        </mxCell>
        <mxCell id="hlbD9dBjY0pBBWdLq2yh-27" value="" style="rounded=1;whiteSpace=wrap;html=1;fillColor=none;" vertex="1" parent="1">
          <mxGeometry x="270" y="120" width="800" height="290" as="geometry" />
        </mxCell>
        <mxCell id="hlbD9dBjY0pBBWdLq2yh-28" value="ETL" style="text;html=1;align=center;verticalAlign=middle;resizable=0;points=[];autosize=1;strokeColor=none;fillColor=none;" vertex="1" parent="1">
          <mxGeometry x="600" y="410" width="50" height="30" as="geometry" />
        </mxCell>
        <mxCell id="hlbD9dBjY0pBBWdLq2yh-29" value="" style="rounded=1;whiteSpace=wrap;html=1;fillColor=none;" vertex="1" parent="1">
          <mxGeometry x="295" y="140" width="130" height="250" as="geometry" />
        </mxCell>
        <mxCell id="hlbD9dBjY0pBBWdLq2yh-30" value="File parquet" style="text;html=1;align=center;verticalAlign=middle;whiteSpace=wrap;rounded=0;" vertex="1" parent="1">
          <mxGeometry x="320" y="255" width="90" height="30" as="geometry" />
        </mxCell>
      </root>
    </mxGraphModel>
  </diagram>
</mxfile>
